<!DOCTYPE svg PUBLIC "-//W3C//DTD SVG 1.1//EN" "http://www.w3.org/Graphics/SVG/1.1/DTD/svg11.dtd">
<?xml version="1.0" encoding="utf-8"?>
<svg width="800px" height="800px" viewBox="0 0 64 64" xmlns="http://www.w3.org/2000/svg">
  <path d="M32,2C15.431,2,2,15.431,2,32c0,16.569,13.431,30,30,30s30-13.432,30-30C62,15.431,48.569,2,32,2z M32,7
    c11.542,0,21.189,8.069,23.747,18.867H40.41l-1.685-3.369l-1.684,3.369H8.253C10.811,15.069,20.458,7,32,7z M8.076,28.867h26.555
    l1.684,3.369l1.685-3.369h25.923C63.973,29.899,64,30.943,64,32c0,1.057-0.027,2.101-0.077,3.133H38.334l-1.685,3.369l-1.684-3.369
    H8.076C8.027,34.101,8,33.057,8,32C8,30.943,8.027,29.899,8.076,28.867z M32,57c-11.542,0-21.189-8.069-23.747-18.867h27.336
    l1.684-3.369l1.685,3.369h23.747C53.189,48.931,43.542,57,32,57z" fill="#2A2E35"/>
</svg>